<?xml version="1.0" standalone="no"?>
<!DOCTYPE svg PUBLIC "-//W3C//DTD SVG 20010904//EN"
 "http://www.w3.org/TR/2001/REC-SVG-20010904/DTD/svg10.dtd">
<svg version="1.0" xmlns="http://www.w3.org/2000/svg"
 width="100.000000pt" height="100.000000pt" viewBox="0 0 100.000000 100.000000"
 preserveAspectRatio="xMidYMid meet">

<g transform="translate(0.000000,100.000000) scale(0.100000,-0.100000)"
fill="#000000" stroke="none">
<path d="M306 909 c-142 -74 -245 -238 -246 -391 -1 -291 282 -517 557 -444
128 34 243 128 297 244 40 84 29 92 -63 45 -68 -35 -80 -38 -160 -38 -75 0
-94 4 -151 31 -83 39 -145 101 -184 184 -27 57 -31 76 -31 151 0 80 3 92 37
159 52 101 43 110 -56 59z"/>
</g>
</svg>
