<?xml version="1.0" standalone="no"?>
<!DOCTYPE svg PUBLIC "-//W3C//DTD SVG 20010904//EN"
 "http://www.w3.org/TR/2001/REC-SVG-20010904/DTD/svg10.dtd">
<svg version="1.0" xmlns="http://www.w3.org/2000/svg"
 width="100.000000pt" height="100.000000pt" viewBox="0 0 100.000000 100.000000"
 preserveAspectRatio="xMidYMid meet">

<g transform="translate(0.000000,100.000000) scale(0.100000,-0.100000)"
fill="#000000" stroke="none">
<path d="M386 944 c-284 -69 -431 -405 -290 -664 35 -65 127 -153 198 -190 76
-39 86 -32 86 61 l0 69 -46 0 c-60 0 -80 12 -105 63 -12 23 -28 50 -37 60 -31
35 10 18 54 -23 38 -35 49 -40 92 -40 39 0 57 6 86 29 l37 29 -52 11 c-63 14
-85 25 -126 64 -32 29 -32 30 -112 23 -52 -5 -81 -4 -81 3 0 5 36 13 80 17 44
3 77 10 74 15 -3 5 -41 9 -85 9 -51 0 -78 4 -74 10 3 6 40 10 81 10 l74 0 0
30 c0 17 7 47 15 66 9 23 13 50 9 75 -14 86 12 107 85 69 35 -17 45 -18 95 -8
43 9 69 9 112 0 50 -10 59 -9 92 8 74 40 99 20 87 -68 -4 -33 -1 -58 9 -84 9
-21 16 -49 16 -63 0 -25 1 -25 80 -25 47 0 80 -4 80 -10 0 -6 -35 -10 -85 -10
-47 0 -85 -4 -85 -9 0 -4 36 -12 80 -15 44 -4 80 -12 80 -17 0 -6 -31 -7 -86
-3 -80 6 -86 6 -100 -15 -19 -26 -76 -56 -138 -72 l-46 -11 26 -21 c38 -30 54
-77 54 -160 0 -100 9 -107 86 -67 151 79 254 244 254 405 -1 302 -279 520
-574 449z"/>
</g>
</svg>
