<?xml version="1.0" standalone="no"?>
<!DOCTYPE svg PUBLIC "-//W3C//DTD SVG 20010904//EN"
 "http://www.w3.org/TR/2001/REC-SVG-20010904/DTD/svg10.dtd">
<svg version="1.0" xmlns="http://www.w3.org/2000/svg"
 width="100.000000pt" height="100.000000pt" viewBox="0 0 100.000000 100.000000"
 preserveAspectRatio="xMidYMid meet">

<g transform="translate(0.000000,100.000000) scale(0.100000,-0.100000)"
fill="#000000" stroke="none">
<path d="M74 827 c-23 -20 -28 -34 -32 -85 l-4 -60 95 -71 c53 -39 98 -71 101
-71 3 0 6 57 6 128 l0 128 -42 27 c-52 33 -88 34 -124 4z"/>
<path d="M798 822 l-37 -27 -1 -127 c0 -71 3 -128 7 -128 3 0 49 32 101 71
l94 71 -4 61 c-4 50 -9 64 -32 84 -36 31 -81 29 -128 -5z"/>
<path d="M280 632 l0 -130 104 -76 c57 -42 110 -76 118 -76 7 0 59 34 116 76
l102 75 0 131 0 130 -52 -38 c-29 -21 -79 -58 -110 -82 l-58 -43 -77 59 c-43
32 -93 68 -110 81 l-33 22 0 -129z"/>
<path d="M40 411 c0 -265 -5 -253 114 -249 l81 3 3 159 c2 142 1 160 -15 172
-10 7 -55 40 -100 74 l-83 61 0 -220z"/>
<path d="M858 557 l-98 -72 3 -160 2 -160 81 -3 c119 -4 114 -16 114 249 0
120 -1 219 -2 218 -2 0 -47 -33 -100 -72z"/>
</g>
</svg>
