<?xml version="1.0" standalone="no"?>
<!DOCTYPE svg PUBLIC "-//W3C//DTD SVG 20010904//EN"
 "http://www.w3.org/TR/2001/REC-SVG-20010904/DTD/svg10.dtd">
<svg version="1.0" xmlns="http://www.w3.org/2000/svg"
 width="100.000000pt" height="100.000000pt" viewBox="0 0 100.000000 100.000000"
 preserveAspectRatio="xMidYMid meet">

<g transform="translate(0.000000,100.000000) scale(0.100000,-0.100000)"
fill="#000000" stroke="none">
<path d="M325 927 c-97 -33 -172 -98 -214 -187 -37 -79 -37 -201 0 -280 33
-70 99 -136 169 -169 75 -36 201 -37 275 -3 l49 23 121 -121 121 -120 42 43
42 43 -119 118 -118 118 31 61 c28 54 31 70 31 146 0 72 -4 95 -26 141 -33 70
-99 136 -168 168 -66 30 -175 39 -236 19z m210 -95 c47 -24 95 -73 121 -122
26 -49 26 -171 0 -220 -26 -49 -74 -98 -121 -123 -31 -17 -58 -22 -115 -22
-85 0 -133 20 -186 77 -54 57 -69 95 -69 178 0 83 15 121 69 178 31 34 70 58
116 73 41 14 142 3 185 -19z"/>
</g>
</svg>
