<?xml version="1.0" standalone="no"?>
<!DOCTYPE svg PUBLIC "-//W3C//DTD SVG 20010904//EN"
 "http://www.w3.org/TR/2001/REC-SVG-20010904/DTD/svg10.dtd">
<svg version="1.0" xmlns="http://www.w3.org/2000/svg"
 width="100.000000pt" height="100.000000pt" viewBox="0 0 100.000000 100.000000"
 preserveAspectRatio="xMidYMid meet">

<g transform="translate(0.000000,100.000000) scale(0.100000,-0.100000)"
fill="#000000" stroke="none">
<path d="M479 711 c-213 -91 -394 -172 -403 -180 -21 -18 -20 -44 3 -65 10 -9
61 -32 112 -50 l93 -34 36 -119 c20 -65 39 -124 44 -131 14 -24 49 -11 104 38
31 27 60 50 66 50 5 0 19 -8 30 -19 61 -54 160 -121 180 -121 51 0 59 25 130
395 36 193 66 355 66 362 0 19 -30 43 -53 42 -12 0 -196 -76 -408 -168z m250
-28 c-20 -21 -92 -102 -162 -179 -115 -128 -130 -149 -156 -220 -18 -48 -31
-73 -35 -64 -3 8 -17 51 -31 95 -19 63 -22 83 -12 92 17 17 420 313 426 313 3
0 -11 -17 -30 -37z"/>
</g>
</svg>
