<?xml version="1.0" standalone="no"?>
<!DOCTYPE svg PUBLIC "-//W3C//DTD SVG 20010904//EN"
 "http://www.w3.org/TR/2001/REC-SVG-20010904/DTD/svg10.dtd">
<svg version="1.0" xmlns="http://www.w3.org/2000/svg"
 width="100.000000pt" height="100.000000pt" viewBox="0 0 100.000000 100.000000"
 preserveAspectRatio="xMidYMid meet">

<g transform="translate(0.000000,100.000000) scale(0.100000,-0.100000)"
fill="#000000" stroke="none">
<path d="M366 849 c-3 -8 -6 -25 -8 -39 -3 -25 -5 -25 -108 -30 -60 -3 -105
-9 -105 -15 0 -5 16 -11 36 -13 35 -3 38 -6 58 -60 11 -32 41 -87 65 -122 l45
-65 -27 -28 c-15 -16 -58 -49 -97 -75 -77 -52 -88 -63 -76 -75 12 -12 81 30
161 96 l65 54 53 -45 c40 -34 56 -42 64 -34 9 9 -1 24 -40 59 l-53 48 46 65
c25 35 55 90 66 122 20 54 23 57 58 60 20 2 36 8 36 13 0 6 -45 12 -105 15
l-105 5 -3 30 c-4 35 -19 55 -26 34z m124 -124 c-17 -45 -52 -109 -83 -153
l-31 -43 -22 28 c-25 31 -77 123 -93 166 l-11 27 125 0 125 0 -10 -25z"/>
<path d="M630 618 c-6 -13 -32 -84 -59 -158 -44 -124 -50 -135 -75 -138 -30
-4 -35 -27 -7 -35 20 -5 20 -5 0 -57 -11 -29 -19 -60 -17 -68 6 -33 24 -13 48
54 l26 69 114 0 115 0 22 -55 c12 -30 24 -64 27 -74 4 -16 8 -17 19 -7 13 10
12 18 -4 61 -24 64 -24 76 3 84 27 6 15 23 -21 28 -20 3 -30 21 -75 148 -28
80 -55 151 -59 158 -13 20 -47 14 -57 -10z m87 -162 c23 -66 43 -123 43 -128
0 -4 -45 -8 -100 -8 -55 0 -100 2 -100 4 0 7 91 259 97 269 4 7 8 6 11 -3 3
-8 25 -69 49 -134z"/>
</g>
</svg>
