<?xml version="1.0" standalone="no"?>
<!DOCTYPE svg PUBLIC "-//W3C//DTD SVG 20010904//EN"
 "http://www.w3.org/TR/2001/REC-SVG-20010904/DTD/svg10.dtd">
<svg version="1.0" xmlns="http://www.w3.org/2000/svg"
 width="100.000000pt" height="100.000000pt" viewBox="0 0 100.000000 100.000000"
 preserveAspectRatio="xMidYMid meet">

<g transform="translate(0.000000,100.000000) scale(0.100000,-0.100000)"
fill="#000000" stroke="none">
<path d="M484 907 c-3 -8 -4 -43 -2 -78 2 -49 7 -64 18 -64 12 0 15 15 15 74
0 51 -4 76 -12 78 -7 3 -15 -2 -19 -10z"/>
<path d="M200 787 c0 -16 91 -107 108 -107 24 0 11 27 -36 73 -48 47 -72 58
-72 34z"/>
<path d="M727 752 c-47 -48 -58 -72 -34 -72 16 0 107 91 107 108 0 24 -27 11
-73 -36z"/>
<path d="M432 689 c-48 -14 -109 -80 -123 -131 -23 -89 12 -182 88 -229 57
-36 154 -34 210 3 62 41 88 90 88 168 0 77 -26 127 -85 166 -43 29 -125 39
-178 23z"/>
<path d="M80 500 c0 -20 5 -21 78 -18 60 2 77 6 77 18 0 12 -17 16 -77 18 -73
3 -78 2 -78 -18z"/>
<path d="M760 500 c0 -20 5 -21 78 -18 60 2 77 6 77 18 0 12 -17 16 -77 18
-73 3 -78 2 -78 -18z"/>
<path d="M247 272 c-47 -48 -58 -72 -34 -72 16 0 107 91 107 108 0 24 -27 11
-73 -36z"/>
<path d="M680 307 c0 -16 91 -107 108 -107 24 0 11 27 -36 73 -48 47 -72 58
-72 34z"/>
<path d="M484 227 c-3 -8 -4 -43 -2 -78 2 -49 7 -64 18 -64 12 0 15 15 15 74
0 51 -4 76 -12 78 -7 3 -15 -2 -19 -10z"/>
</g>
</svg>
